# xmcd
#
# Track frame offsets:
#	150
#	18189
#	31013
#	48459
#	64379
#	77940
#	98567
#	116274
#	129512
#	145398
#	163781
#	178858
#	191368
#	207749
#	221089
#	232434
#	240481
#	241429
#	242618
#	254879
#	264714
#	277641
#	299971
#	322433
#
# Disc length: 4569 seconds
#
# Revision: 0
# Processed by: cddbd v1.5.2PL0 Copyright (c) Steve Scherf et al.
# Submitted via: audiograbber 1.83.01
#
DISCID=7e11d718
DTITLE=Country Hotdisc - Country Hotdisc 139
DYEAR=2010
DGENRE=Country
TTITLE0=Wild Angels  - Harry Stinson
TTITLE1=I´m A Little Bluer Than That  - Hayley Olvier Band
TTITLE2=Leavin Lubbock  - Joel Warren
TTITLE3=Big Girl Now  - Johanna Hemara
TTITLE4=I Wouldn´t Trade My Shamrock  - Donny Richmond and The Jordanaries
TTITLE5=What Mattered Most  - Vince Melamed
TTITLE6=What About You And Me  - Ronnie Baker
TTITLE7=Just Give Me One Beautiful Girl And A Horse With Some Lemonade  - Sam M
TTITLE7=illar
TTITLE8=The Little Things - Jennifer Brantley
TTITLE9=Songbird  - Randy Thompson
TTITLE10=Make Some Time To Love Me - Miss Lucie Diamond
TTITLE11=Inflatable Doll  - Keith Compton
TTITLE12=The Rain Came Falling Down  - Pete Redfern
TTITLE13=Will If You Will  - Red Hot Poker Dots
TTITLE14=You Got A Hold On Me - Mexican Joe Walker
TTITLE15=Sugartime  - Johnny Cash
TTITLE16=Donny Gibson Generic Radio Liners  - Donny Gibson
TTITLE17=Donny Gibson Generic Radio Liners  - Donny Gibson
TTITLE18=Rose Marie  - Carl Gibson (live In Concert)
TTITLE19=China Doll  - Carl Gibson (live In Concert)
TTITLE20=Johnny Remember  - Carl Gibson (live In Concert)
TTITLE21=Ghost Riders  - Carl Gibson (live In Concert)
TTITLE22=The Bandit  - Carl Gibson (live In Concert)
TTITLE23=Cowboy Ain´t Supposed  - Carl Gibson (live In Concert)
EXTD=
EXTT0=
EXTT1=
EXTT2=
EXTT3=
EXTT4=
EXTT5=
EXTT6=
EXTT7=
EXTT8=
EXTT9=
EXTT10=
EXTT11=
EXTT12=
EXTT13=
EXTT14=
EXTT15=
EXTT16=
EXTT17=
EXTT18=
EXTT19=
EXTT20=
EXTT21=
EXTT22=
EXTT23=
PLAYORDER=
